<?xml version="1.0" encoding="UTF-8" standalone="no"?>
<svg xmlns="http://www.w3.org/2000/svg" version="1.1" viewBox="0 0 440 380">
   <polyline fill="none" points="326,170 396,170" stroke="rgb(0, 0, 0)" stroke-linecap="square" stroke-width="3.0"/>
   <polyline fill="none" points="206,330 276,330" stroke="rgb(0, 0, 0)" stroke-linecap="square" stroke-width="3.0"/>
   <polyline fill="none" points="206,210 276,210" stroke="rgb(0, 0, 0)" stroke-linecap="square" stroke-width="3.0"/>
   <polyline fill="none" points="206,270 276,270" stroke="rgb(0, 0, 0)" stroke-linecap="square" stroke-width="3.0"/>
   <polyline fill="none" points="206,150 276,150" stroke="rgb(0, 0, 0)" stroke-linecap="square" stroke-width="3.0"/>
   <polyline fill="none" points="96,170 156,170" stroke="rgb(0, 0, 0)" stroke-linecap="square" stroke-width="3.0"/>
   <polyline fill="none" points="96,100 96,170 96,230 156,230" stroke="rgb(0, 0, 0)" stroke-linecap="square" stroke-width="3.0"/>
   <polyline fill="none" points="96,60 96,70" stroke="rgb(0, 0, 0)" stroke-linecap="square" stroke-width="3.0"/>
   <polyline fill="none" points="136,60 136,70" stroke="rgb(0, 0, 0)" stroke-linecap="square" stroke-width="3.0"/>
   <polyline fill="none" points="396,260 346,260 346,350 326,350" stroke="rgb(0, 0, 0)" stroke-linecap="square" stroke-width="3.0"/>
   <polyline fill="none" points="236,250 276,250" stroke="rgb(0, 0, 0)" stroke-linecap="square" stroke-width="3.0"/>
   <polyline fill="none" points="236,190 276,190" stroke="rgb(0, 0, 0)" stroke-linecap="square" stroke-width="3.0"/>
   <polyline fill="none" points="236,310 276,310" stroke="rgb(0, 0, 0)" stroke-linecap="square" stroke-width="3.0"/>
   <polyline fill="none" points="46,180 236,180 236,190 236,250 236,310 236,370 276,370" stroke="rgb(0, 0, 0)" stroke-linecap="square" stroke-width="3.0"/>
   <polyline fill="none" points="96,50 96,60 86,60 86,290 156,290" stroke="rgb(0, 0, 0)" stroke-linecap="square" stroke-width="3.0"/>
   <polyline fill="none" points="126,190 156,190" stroke="rgb(0, 0, 0)" stroke-linecap="square" stroke-width="3.0"/>
   <polyline fill="none" points="136,50 136,60 126,60 126,190 126,310 156,310" stroke="rgb(0, 0, 0)" stroke-linecap="square" stroke-width="3.0"/>
   <polyline fill="none" points="136,100 136,130 156,130" stroke="rgb(0, 0, 0)" stroke-linecap="square" stroke-width="3.0"/>
   <polyline fill="none" points="326,290 336,290 336,230 396,230" stroke="rgb(0, 0, 0)" stroke-linecap="square" stroke-width="3.0"/>
   <polyline fill="none" points="136,130 136,250 156,250" stroke="rgb(0, 0, 0)" stroke-linecap="square" stroke-width="3.0"/>
   <polyline fill="none" points="326,230 326,200 396,200" stroke="rgb(0, 0, 0)" stroke-linecap="square" stroke-width="3.0"/>
   <polyline fill="none" points="86,290 86,350 156,350" stroke="rgb(0, 0, 0)" stroke-linecap="square" stroke-width="3.0"/>
   <circle cx="136.0" cy="60.0" fill="rgb(0, 0, 0)" r="5.0" stroke="none" stroke-width="3.0"/>
   <circle cx="96.0" cy="170.0" fill="rgb(0, 0, 0)" r="5.0" stroke="none" stroke-width="3.0"/>
   <circle cx="236.0" cy="310.0" fill="rgb(0, 0, 0)" r="5.0" stroke="none" stroke-width="3.0"/>
   <circle cx="236.0" cy="190.0" fill="rgb(0, 0, 0)" r="5.0" stroke="none" stroke-width="3.0"/>
   <circle cx="96.0" cy="60.0" fill="rgb(0, 0, 0)" r="5.0" stroke="none" stroke-width="3.0"/>
   <circle cx="136.0" cy="130.0" fill="rgb(0, 0, 0)" r="5.0" stroke="none" stroke-width="3.0"/>
   <circle cx="126.0" cy="190.0" fill="rgb(0, 0, 0)" r="5.0" stroke="none" stroke-width="3.0"/>
   <circle cx="86.0" cy="290.0" fill="rgb(0, 0, 0)" r="5.0" stroke="none" stroke-width="3.0"/>
   <circle cx="236.0" cy="250.0" fill="rgb(0, 0, 0)" r="5.0" stroke="none" stroke-width="3.0"/>
   <rect fill="none" height="18" stroke="rgb(0, 0, 0)" stroke-linecap="square" stroke-width="2.0" width="18" x="88" y="32"/>
   <text fill="rgb(0, 0, 0)" font-family="SansSerif" font-size="12" x="90.0" y="47.0">x1</text>
   <text fill="rgb(0, 0, 0)" font-family="SansSerif" font-size="16" font-weight="bold" x="88.0" y="23.0">c1</text>
   <circle cx="96.0" cy="50.0" fill="rgb(0, 0, 0)" r="2.0" stroke="none" stroke-width="2.0"/>
   <polyline fill="none" points="136,90 143,71 129,71 136,90" stroke="rgb(0, 0, 0)" stroke-linecap="square" stroke-width="2.0"/>
   <circle cx="136.0" cy="95.0" fill="none" r="4.5" stroke="rgb(0, 0, 0)" stroke-width="2.0"/>
   <circle cx="136.0" cy="100.0" fill="rgb(0, 0, 0)" r="2.0" stroke="none" stroke-width="2.0"/>
   <circle cx="136.0" cy="70.0" fill="rgb(0, 0, 0)" r="2.0" stroke="none" stroke-width="2.0"/>
   <rect fill="none" height="18" stroke="rgb(0, 0, 0)" stroke-linecap="square" stroke-width="2.0" width="18" x="128" y="32"/>
   <text fill="rgb(0, 0, 0)" font-family="SansSerif" font-size="12" x="130.0" y="47.0">x1</text>
   <text fill="rgb(0, 0, 0)" font-family="SansSerif" font-size="16" font-weight="bold" x="128.0" y="23.0">c0</text>
   <circle cx="136.0" cy="50.0" fill="rgb(0, 0, 0)" r="2.0" stroke="none" stroke-width="2.0"/>
   <rect fill="none" height="18" stroke="rgb(0, 0, 0)" stroke-linecap="square" stroke-width="2.0" width="18" x="28" y="172"/>
   <text fill="rgb(0, 0, 0)" font-family="SansSerif" font-size="12" x="30.0" y="187.0">x1</text>
   <text fill="rgb(0, 0, 0)" font-family="SansSerif" font-size="16" font-weight="bold" x="5.0" y="189.0">e0</text>
   <circle cx="46.0" cy="180.0" fill="rgb(0, 0, 0)" r="2.0" stroke="none" stroke-width="2.0"/>
   <polyline fill="none" points="96,90 103,71 89,71 96,90" stroke="rgb(0, 0, 0)" stroke-linecap="square" stroke-width="2.0"/>
   <circle cx="96.0" cy="95.0" fill="none" r="4.5" stroke="rgb(0, 0, 0)" stroke-width="2.0"/>
   <circle cx="96.0" cy="100.0" fill="rgb(0, 0, 0)" r="2.0" stroke="none" stroke-width="2.0"/>
   <circle cx="96.0" cy="70.0" fill="rgb(0, 0, 0)" r="2.0" stroke="none" stroke-width="2.0"/>
   <circle cx="407.0" cy="171.0" fill="none" r="9.0" stroke="rgb(0, 0, 0)" stroke-width="2.0"/>
   <text fill="rgb(0, 0, 0)" font-family="SansSerif" font-size="12" x="400.0" y="177.0">x1</text>
   <text fill="rgb(0, 0, 0)" font-family="SansSerif" font-size="16" font-weight="bold" x="418.0" y="179.0">s0</text>
   <circle cx="396.0" cy="170.0" fill="rgb(0, 0, 0)" r="2.0" stroke="none" stroke-width="2.0"/>
   <circle cx="407.0" cy="261.0" fill="none" r="9.0" stroke="rgb(0, 0, 0)" stroke-width="2.0"/>
   <text fill="rgb(0, 0, 0)" font-family="SansSerif" font-size="12" x="400.0" y="267.0">x1</text>
   <text fill="rgb(0, 0, 0)" font-family="SansSerif" font-size="16" font-weight="bold" x="418.0" y="269.0">s3</text>
   <circle cx="396.0" cy="260.0" fill="rgb(0, 0, 0)" r="2.0" stroke="none" stroke-width="2.0"/>
   <circle cx="407.0" cy="231.0" fill="none" r="9.0" stroke="rgb(0, 0, 0)" stroke-width="2.0"/>
   <text fill="rgb(0, 0, 0)" font-family="SansSerif" font-size="12" x="400.0" y="237.0">x1</text>
   <text fill="rgb(0, 0, 0)" font-family="SansSerif" font-size="16" font-weight="bold" x="418.0" y="239.0">s2</text>
   <circle cx="396.0" cy="230.0" fill="rgb(0, 0, 0)" r="2.0" stroke="none" stroke-width="2.0"/>
   <circle cx="407.0" cy="201.0" fill="none" r="9.0" stroke="rgb(0, 0, 0)" stroke-width="2.0"/>
   <text fill="rgb(0, 0, 0)" font-family="SansSerif" font-size="12" x="400.0" y="207.0">x1</text>
   <text fill="rgb(0, 0, 0)" font-family="SansSerif" font-size="16" font-weight="bold" x="418.0" y="209.0">s1</text>
   <circle cx="396.0" cy="200.0" fill="rgb(0, 0, 0)" r="2.0" stroke="none" stroke-width="2.0"/>
   <path d="M181.0,235.0 A25.0,25.0 90.0 0,0 181.0,185.0" fill="none" stroke="rgb(0, 0, 0)" stroke-width="2.0"/>
   <polyline fill="none" points="181,185 157,185 157,235 181,235" stroke="rgb(0, 0, 0)" stroke-linecap="square" stroke-width="2.0"/>
   <path d="M181.0,295.0 A25.0,25.0 90.0 0,0 181.0,245.0" fill="none" stroke="rgb(0, 0, 0)" stroke-width="2.0"/>
   <polyline fill="none" points="181,245 157,245 157,295 181,295" stroke="rgb(0, 0, 0)" stroke-linecap="square" stroke-width="2.0"/>
   <path d="M181.0,355.0 A25.0,25.0 90.0 0,0 181.0,305.0" fill="none" stroke="rgb(0, 0, 0)" stroke-width="2.0"/>
   <polyline fill="none" points="181,305 157,305 157,355 181,355" stroke="rgb(0, 0, 0)" stroke-linecap="square" stroke-width="2.0"/>
   <path d="M181.0,175.0 A25.0,25.0 90.0 0,0 181.0,125.0" fill="none" stroke="rgb(0, 0, 0)" stroke-width="2.0"/>
   <polyline fill="none" points="181,125 157,125 157,175 181,175" stroke="rgb(0, 0, 0)" stroke-linecap="square" stroke-width="2.0"/>
   <path d="M301.0,195.0 A25.0,25.0 90.0 0,0 301.0,145.0" fill="none" stroke="rgb(0, 0, 0)" stroke-width="2.0"/>
   <polyline fill="none" points="301,145 277,145 277,195 301,195" stroke="rgb(0, 0, 0)" stroke-linecap="square" stroke-width="2.0"/>
   <path d="M301.0,375.0 A25.0,25.0 90.0 0,0 301.0,325.0" fill="none" stroke="rgb(0, 0, 0)" stroke-width="2.0"/>
   <polyline fill="none" points="301,325 277,325 277,375 301,375" stroke="rgb(0, 0, 0)" stroke-linecap="square" stroke-width="2.0"/>
   <path d="M301.0,255.0 A25.0,25.0 90.0 0,0 301.0,205.0" fill="none" stroke="rgb(0, 0, 0)" stroke-width="2.0"/>
   <polyline fill="none" points="301,205 277,205 277,255 301,255" stroke="rgb(0, 0, 0)" stroke-linecap="square" stroke-width="2.0"/>
   <path d="M301.0,315.0 A25.0,25.0 90.0 0,0 301.0,265.0" fill="none" stroke="rgb(0, 0, 0)" stroke-width="2.0"/>
   <polyline fill="none" points="301,265 277,265 277,315 301,315" stroke="rgb(0, 0, 0)" stroke-linecap="square" stroke-width="2.0"/>
</svg>
